<?xml version="1.0" encoding="UTF-8"?><svg id="_8._iteration_expand_" xmlns="http://www.w3.org/2000/svg" width="88.64mm" height="30.18mm" viewBox="0 0 251.28 85.55"><defs><style>.cls-1{fill:#cca894;}</style></defs><path class="cls-1" d="M81.08,51.61c-1.2,0-2.68-.36-4.26-1.6-2.43-1.92-3.88-5.04-3.88-8.34V9.28h5v32.39c0,1.78.74,3.43,1.98,4.41.8.63,1.22.54,1.36.51l1.05,4.89c-.37.08-.79.13-1.25.13Z"/><path class="cls-1" d="M45.86,17.52h-.02s.02.03.02,0Z"/><path class="cls-1" d="M67.08,50.46c-.3-7.49-.46-15.79-.58-23.33-.02-1.28-.07-4.59-.08-5.83.12-3.62-1.23-7.49-3.79-10.09-3.16-3.45-8.37-3.57-12.62-2.72-5,.73-9.62,4.47-9.05,10.05l4.88-1.02s-.03-.1-.05-.14c-1.22-6.1,11.4-7.47,14.24-3.75,2.01,2.09,2.83,4.81,2.7,7.68,0,.82-.03,2.52-.05,3.96-3.05-3.05-7.95-4.07-12.11-2.56-8.61,2.9-15.43,12.89-12.54,22.04,2.01,6.23,9.36,8.93,15.2,6.6,3.64-1.31,6.54-3.79,8.74-6.65.11-.14.21-.29.31-.44-.06,2.11-.13,4.19-.22,6.21h5ZM59.38,42.65c-5.46,6.95-17.36,6.82-17.85-3.57-.35-5.85,4.25-11.9,9.95-13.34,11.02-2.61,14.02,9.67,7.9,16.92Z"/><path class="cls-1" d="M19.92,52.43c-1.84,0-3.65-.31-5.38-.95-6.65-2.46-10.75-8.25-12.37-12.85-.92-2.61-2.52-11.18,1.08-19.35,2.92-6.63,7.72-10.8,13.51-11.76,6.29-1.04,12.76,1.79,16.9,7.39l-4.02,2.97c-3.01-4.08-7.64-6.16-12.06-5.43-5.22.86-8.18,5.29-9.75,8.84-2.93,6.65-1.63,13.72-.94,15.67,1.19,3.37,4.36,7.96,9.39,9.82,4.38,1.62,9.69.12,13.85-3.92l3.48,3.59c-4.01,3.88-8.93,5.96-13.68,5.96Z"/><path class="cls-1" d="M129.46,7.3c-5.83.02-10.37,3.69-12.92,8.52-.61-1.16-1.38-2.24-2.23-3.19-3.63-4.35-9.69-6.93-15.12-4.22-2.82,1.37-4.97,3.6-6.37,6.22.1-1.79.21-3.58.33-5.37,0,0-5,0-5,0,.96,13.7,1.13,27.45.85,41.18,0,0,3.3,0,3.3,0-.15-7.28-.16-14.56,0-21.83.52,1.12,1.18,2.19,2.01,3.16,3.34,4.33,9.9,6.68,14.85,3.71,2.17-1.27,3.78-3.07,5.12-5.07-.04,6.68-.14,13.36-.28,20.04,0,0,3.8,0,3.8,0-.17-7.99-.29-15.98-.31-23.97.04-6.94,4.86-14.26,12.11-14.19,6.59-.31,10.15,5.04,9.66,11.2.02,1.99.13,12.74.15,14.98.09,4,.13,7.99.27,11.99,0,0,4.18,0,4.18,0,.27-8.73.36-19.7.42-28.47.18-8.23-6.43-15.25-14.81-14.68ZM103.85,33.2c-2.62-.12-5.27-1.32-7.01-3.48-4.36-5.2-2.59-14.8,4.21-16.82,6.41-2.14,14.73,1.4,13.13,9.19-.84,5.12-4.5,11.36-10.34,11.12Z"/><circle class="cls-1" cx="153.4" cy="3.54" r="2.42"/><path class="cls-1" d="M211.85,48.75c-.25-.31-.09-.11,0,0h0Z"/><path class="cls-1" d="M250.63,9.3l-4.35-.04c0-.11-.01-.01-.02,0-.25.67-.57.8-1.45.87-4.61-.5-9.84-2.78-14.98-2.85,0,0,0,.05,0,.11-3.25-.41-6.74.14-10.28,1.97-12.31,6.66-14.74,24.9-5.81,35.25.82.94,1.66,1.78,2.53,2.52-1.63.07-3.19.45-4.46,1.57.13.16.1.13.04.06.15.18.43.53.97,1.18,2.02,2.47.56.68,1.02,1.23,0,0,0,0,0,0h0s.01-.02.01-.02c0,0,.03-.02.03-.02.8-.7,1.8-.63,2.89-.61,4.09.23,7.93,1.46,12.2,1.59,4.48,2.1,7.97,6.3,8.89,11.19,1.18,4.92-1.47,9.76-5.31,12.73-3.9,3.14-9.44,4.18-14.43,3.68-6.78-.64-12.06-6.25-13.77-12.69-1.31-5.33-.93-10.94-1.29-16.56h0c-.03-4.04-.29-7.98-.67-11.96-1.13-9.36-2.66-22.1-10.39-28.56-3.76-3.1-9.78-3-13.57,0-4.43,3.41-6.79,8.62-8.36,13.76-.04-4.8-.15-9.61-.34-14.41h-2.83c-.31,6.86-.37,13.72-.36,20.59.03,6.86.09,13.73.35,20.59,0,0,2.84.05,2.83.04,1.66-11.22,3.08-23.02,8.38-33.01,2.44-4.6,7.13-7.38,11.47-4.29,8.35,6.8,9.65,26.89,9.92,37.26h0c-.39,7.72-1.59,16.52,2.54,23.64,2.06,3.77,5.31,7,9.27,8.82,7.86,3.34,17.48,2.24,24.29-3.08,10.68-8.44,8.59-22.85-1.73-29.58,7.34-2.93,13.1-10.77,13.19-20.42.17-5.63-1.79-11.09-5.08-15.24,3.81.95,8.59-.67,8.66-5.31ZM229.8,48.19s0,0,0,0c-1.68.05-3.38-.08-5.12-.28-1.02-.28-2.06-.7-3.12-1.28-9.4-5.81-10.62-20.38-4.22-28.78,10.29-12.64,24.78-1.95,24.77,11.99.37,8.28-4.83,17.05-12.3,18.35Z"/><path class="cls-1" d="M159.04,51.61c-1.2,0-2.68-.36-4.26-1.6-2.43-1.92-3.88-5.04-3.88-8.34V9.28h5v32.39c0,1.78.74,3.43,1.98,4.41.79.62,1.22.54,1.36.51l1.05,4.89c-.37.08-.79.13-1.25.13Z"/></svg>